# xmcd
#
# Track frame offsets: 
#        150
#        19418
#        37035
#        51463
#        71183
#        86903
#        103805
#        121418
#        136378
#        160749
#        177315
#        191716
#        203805
#        221486
#        235401
#        253164
#        267213
#        283930
#
# Disc length: 3944 seconds
#
# Revision: 0
# Processed by: cddbd v1.5.2PL0 Copyright (c) Steve Scherf et al.
# Submitted via: ExactAudioCopy v0.99pb3
#
DISCID=240f6612
DTITLE=Eleanor Ellis - Comin' a Time
DYEAR=2007
DGENRE=Blues
TTITLE0=Take Me Back Baby
TTITLE1=Diving Duck
TTITLE2=Cypress Grove
TTITLE3=61 Highway
TTITLE4=Wonder Where My Easy Rider's Gone
TTITLE5=Big Road Blues
TTITLE6=In My Girlish Days
TTITLE7=The Panic Is On
TTITLE8=Sun's Gonna Shine One Day
TTITLE9=Texas Easy Street Blues
TTITLE10=Leavin' Trunk
TTITLE11=Me And My Chauffeur
TTITLE12=Kansas City
TTITLE13=Goin' Away Blues
TTITLE14=Special Rider
TTITLE15=Richmond Blues
TTITLE16=Mississippi Blues
TTITLE17=What's The Matter With The Mill
EXTD=
EXTT0=
EXTT1=
EXTT2=
EXTT3=
EXTT4=
EXTT5=
EXTT6=
EXTT7=
EXTT8=
EXTT9=
EXTT10=
EXTT11=
EXTT12=
EXTT13=
EXTT14=
EXTT15=
EXTT16=
EXTT17=
PLAYORDER=
